<?xml version="1.0" encoding="UTF-8" standalone="no"?>
<!-- Created with Inkscape (http://www.inkscape.org/) -->

<svg
   xmlns:dc="http://purl.org/dc/elements/1.1/"
   xmlns:cc="http://creativecommons.org/ns#"
   xmlns:rdf="http://www.w3.org/1999/02/22-rdf-syntax-ns#"
   xmlns:svg="http://www.w3.org/2000/svg"
   xmlns="http://www.w3.org/2000/svg"
   xmlns:xlink="http://www.w3.org/1999/xlink"
   xmlns:sodipodi="http://sodipodi.sourceforge.net/DTD/sodipodi-0.dtd"
   xmlns:inkscape="http://www.inkscape.org/namespaces/inkscape"
   width="108"
   height="108"
   viewBox="0 0 28.574999 28.575001"
   version="1.1"
   id="svg8"
   inkscape:export-filename="/home/skadge/src/Dragons' Eggs RPG/godot_game/icon.png"
   inkscape:export-xdpi="763.26001"
   inkscape:export-ydpi="763.26001"
   inkscape:version="0.92.5 (2060ec1f9f, 2020-04-08)"
   sodipodi:docname="icon-foreground.svg">
  <defs
     id="defs2">
    <linearGradient
       id="linearGradient982"
       inkscape:collect="always">
      <stop
         id="stop978"
         offset="0"
         style="stop-color:#2e3436;stop-opacity:0.60454547" />
      <stop
         id="stop980"
         offset="1"
         style="stop-color:#eeeeec;stop-opacity:0" />
    </linearGradient>
    <linearGradient
       inkscape:collect="always"
       xlink:href="#linearGradient982"
       id="linearGradient972"
       x1="15.497024"
       y1="283.81805"
       x2="23.340031"
       y2="290.52713"
       gradientUnits="userSpaceOnUse" />
  </defs>
  <sodipodi:namedview
     id="base"
     pagecolor="#ffffff"
     bordercolor="#666666"
     borderopacity="1.0"
     inkscape:pageopacity="0.0"
     inkscape:pageshadow="2"
     inkscape:zoom="7.9195959"
     inkscape:cx="73.9731"
     inkscape:cy="54.951195"
     inkscape:document-units="mm"
     inkscape:current-layer="layer1"
     showgrid="false"
     units="px"
     inkscape:window-width="2560"
     inkscape:window-height="1328"
     inkscape:window-x="0"
     inkscape:window-y="38"
     inkscape:window-maximized="1" />
  <metadata
     id="metadata5">
    <rdf:RDF>
      <cc:Work
         rdf:about="">
        <dc:format>image/svg+xml</dc:format>
        <dc:type
           rdf:resource="http://purl.org/dc/dcmitype/StillImage" />
        <dc:title />
      </cc:Work>
    </rdf:RDF>
  </metadata>
  <g
     inkscape:label="Layer 1"
     inkscape:groupmode="layer"
     id="layer1"
     transform="translate(0,-268.42498)">
    <g
       id="g906"
       transform="matrix(1.2713666,0,0,1.2713666,3.3980635,-83.60088)">
      <path
         inkscape:connector-curvature="0"
         id="path840"
         d="m 13.505298,288.30085 c 0,0 -0.378355,-0.7738 -0.480792,-1.11857 -0.102449,-0.34476 -0.203369,-2.56106 -0.239435,-2.88337 -0.03607,-0.3223 0.09561,-1.18249 0.0096,-1.39083 -0.08601,-0.20831 0.855023,0.52539 0.941509,0.62293 0.0865,0.0975 1.038929,0.94893 1.086889,1.27809 0.04797,0.32918 0.588593,3.32297 0.588593,3.32297 z"
         style="fill:#98664d;fill-opacity:1;stroke:#000000;stroke-width:0.30781868px;stroke-linecap:butt;stroke-linejoin:miter;stroke-opacity:1" />
      <path
         inkscape:connector-curvature="0"
         id="path838"
         d="m 4.6459632,286.39873 c 0,0 0.028588,-1.49768 -0.011729,-1.70952 -0.040247,-0.21187 -0.055414,-2.47784 -0.055414,-2.47784 0,0 -0.2925731,0.3808 -0.3155509,0.39587 -0.022999,0.0151 -0.5248432,0.35237 -0.5248432,0.35237 l -1.3023071,2.58756 -0.3475874,0.59765 2.5229663,0.27651 z"
         style="fill:#966347;fill-opacity:1;stroke:#000000;stroke-width:0.30781868px;stroke-linecap:butt;stroke-linejoin:miter;stroke-opacity:1" />
      <path
         sodipodi:nodetypes="cscccccscccssssc"
         style="fill:#8fc82e;fill-opacity:1;stroke:none;stroke-width:0.30781868px;stroke-linecap:butt;stroke-linejoin:miter;stroke-opacity:1"
         d="m 3.5155164,285.09755 c 0.6413218,-0.15548 0.9911333,-0.4664 1.6713232,-0.64132 0.6801897,-0.1749 2.0529298,-0.6909 2.4610436,-0.61317 0.4081137,0.0776 0.9204707,0.67147 1.6200944,0.88524 0.699624,0.21377 3.4539624,0.67271 3.7066054,0.80875 0.252641,0.13604 0.277361,0.84314 0.99642,1.4456 0.719057,0.60245 1.946566,1.35233 1.635623,1.83818 -0.310946,0.48585 -2.024303,2.6705 -2.374114,3.15636 -0.349812,0.48585 -2.040569,2.54585 -2.545853,2.79848 -0.505285,0.25265 -1.1035941,0.81664 -2.0169915,0.66117 -0.9133978,-0.15549 -3.116749,-0.94325 -3.6803346,-1.33192 -0.5635859,-0.38868 -1.0657029,-1.31152 -1.6875905,-2.24435 -0.6218878,-0.93283 -1.2858101,-1.84289 -1.324678,-2.60082 -0.038868,-0.75793 0.050657,-0.9485 -0.2602872,-1.53153 -0.3109436,-0.58302 0.030247,-1.03707 0.4383599,-1.79501 0.4081138,-0.75792 0.9328313,-0.6802 1.3603793,-0.83566 z"
         id="path846"
         inkscape:connector-curvature="0" />
      <path
         inkscape:connector-curvature="0"
         id="path836"
         d="m 3.5155164,285.09755 c 0.6413218,-0.15548 0.9911333,-0.4664 1.6713232,-0.64132 0.6801897,-0.1749 2.1766069,-0.44698 2.5847206,-0.36925 0.4081137,0.0776 0.7967937,0.42755 1.4964174,0.64132 0.699624,0.21377 3.2066084,1.03 3.4592504,1.16604 0.252642,0.13604 0.524716,0.48585 1.243775,1.08831 0.719057,0.60245 1.438116,1.37981 1.127171,1.86567 -0.310944,0.48585 -1.515851,2.64301 -1.865662,3.12887 -0.349812,0.48585 -2.040569,2.54585 -2.545853,2.79848 -0.505285,0.25265 -1.5158513,0.58302 -2.4292488,0.42755 -0.9133977,-0.15547 -2.1960412,-0.87452 -2.7596268,-1.2632 -0.5635856,-0.38868 -1.5741534,-1.14662 -2.196041,-2.07945 -0.6218878,-0.93283 -0.7773595,-1.78792 -0.8162275,-2.54585 -0.038867,-0.75792 -0.1554718,-1.12716 -0.4664158,-1.71019 -0.3109437,-0.58302 -0.2720757,-0.91338 0.136038,-1.67132 0.4081138,-0.75792 0.9328313,-0.6802 1.3603793,-0.83566 z"
         style="fill:none;stroke:#000000;stroke-width:0.30781868px;stroke-linecap:butt;stroke-linejoin:miter;stroke-opacity:1" />
      <path
         inkscape:connector-curvature="0"
         id="path842"
         d="m 4.6749971,285.3177 c 0,0 1.2642554,1.58032 1.6902546,1.89639"
         style="fill:none;stroke:#000000;stroke-width:0.89000803;stroke-linecap:round;stroke-linejoin:miter;stroke-miterlimit:4;stroke-dasharray:none;stroke-opacity:1" />
      <path
         inkscape:connector-curvature="0"
         id="path844"
         d="m 11.064984,286.4995 c -1.6490292,1.704 -1.7589644,1.82769 -1.7589644,1.82769"
         style="fill:none;stroke:#000000;stroke-width:0.89000803;stroke-linecap:round;stroke-linejoin:miter;stroke-miterlimit:4;stroke-dasharray:none;stroke-opacity:1" />
      <path
         sodipodi:nodetypes="cccscscccccc"
         inkscape:connector-curvature="0"
         id="path848"
         d="m 10.718472,290.49153 c 0,0 0.02248,0.38724 0.02935,0.62774 0.0069,0.24047 -0.658516,1.68089 -0.9951923,2.12065 -0.3366768,0.43973 -0.1168062,-0.0619 -1.3329649,0.0206 -1.2161587,0.0824 -1.2436424,0.19238 -1.7039964,-0.007 -0.4603539,-0.19926 -1.5202316,-0.6603 -1.7675858,-1.06569 -0.2473542,-0.40539 0.1803956,-1.34602 0.304068,-1.46282 0.1236769,-0.1168 0.4776324,-0.84119 0.6494062,-0.90304 0.1717737,-0.0618 1.4668474,0.50452 2.1333297,0.51827 0.6664827,0.0137 1.9639137,-0.14036 2.0601065,-0.13349 0.09619,0.007 0.526301,0.0513 0.526301,0.0513 z"
         style="fill:#cd3046;fill-opacity:1;stroke:none;stroke-width:0.30781868px;stroke-linecap:butt;stroke-linejoin:miter;stroke-opacity:1" />
      <path
         style="fill:none;fill-opacity:1;stroke:#000000;stroke-width:0.30781868px;stroke-linecap:butt;stroke-linejoin:miter;stroke-opacity:1"
         d="m 10.329792,290.49153 c 0,0 0.109931,0.82452 0.116806,1.06499 0.0069,0.24049 -0.35729,1.24364 -0.6939664,1.6834 -0.3366768,0.43973 -0.1168062,-0.0619 -1.3329649,0.0206 -1.2161587,0.0824 -1.2436424,0.19238 -1.7039963,-0.007 -0.460354,-0.19926 -1.2092879,-0.72832 -1.4566421,-1.13371 -0.2473542,-0.40539 -0.1305482,-1.278 -0.00688,-1.3948 0.1236769,-0.1168 0.5359342,-0.54967 0.7077082,-0.61152 0.1717734,-0.0618 1.4085454,0.213 2.0750277,0.22675 0.6664827,0.0137 1.94448,0.15116 2.0406728,0.15802 0.09619,0.007 0.254225,-0.007 0.254225,-0.007 z"
         id="path856"
         inkscape:connector-curvature="0" />
      <path
         sodipodi:nodetypes="cccc"
         inkscape:connector-curvature="0"
         id="path850"
         d="m 6.0904137,290.24418 0.4740956,1.1337 1.2299006,-0.94819 z"
         style="fill:#e7f5e3;fill-opacity:1;stroke:#000000;stroke-width:0.30781868px;stroke-linecap:butt;stroke-linejoin:miter;stroke-opacity:1" />
      <path
         sodipodi:nodetypes="cccc"
         inkscape:connector-curvature="0"
         id="path852"
         d="m 8.5089891,290.48466 0.6870955,1.47725 0.9619334,-1.40854 z"
         style="fill:#e7f5e3;fill-opacity:1;stroke:#000000;stroke-width:0.30781868px;stroke-linecap:butt;stroke-linejoin:miter;stroke-opacity:1" />
      <path
         sodipodi:nodetypes="cccc"
         inkscape:connector-curvature="0"
         id="path854"
         d="m 7.1897661,293.30862 0.4603539,-1.41541 1.01003,1.278 z"
         style="fill:#e7f5e3;fill-opacity:1;stroke:#000000;stroke-width:0.30781868px;stroke-linecap:butt;stroke-linejoin:miter;stroke-opacity:1" />
    </g>
  </g>
</svg>
